<?xml version="1.0" encoding="iso-8859-1"?>
<!-- Generator: Adobe Illustrator 19.0.0, SVG Export Plug-In . SVG Version: 6.00 Build 0)  -->
<svg version="1.1" id="Capa_1" xmlns="http://www.w3.org/2000/svg" xmlns:xlink="http://www.w3.org/1999/xlink" x="0px" y="0px"
	 viewBox="0 0 512 512" style="enable-background:new 0 0 512 512;" xml:space="preserve">
<circle style="fill:#F9EED7;" cx="256" cy="256" r="256"/>
<path style="fill:#D6C8B0;" d="M415.609,96.391C372.976,53.757,316.293,30.278,256,30.278c-47.599,0-93.121,14.641-131.645,42.341
	c-11.43,8.218-22.154,17.566-31.861,27.77c-3.606,3.78-7.102,7.718-10.375,11.682c-5.274,6.358-10.254,13.083-14.806,19.993
	C43.084,168.881,30.278,211.736,30.278,256c0,56.752,20.815,110.297,58.814,151.945c2.957,3.241,7.898,3.763,11.38,1.093
	c2.045-1.568,4.042-3.201,5.999-4.88c3.616-3.102,3.995-8.585,0.777-12.099C74.387,356.165,54.311,308.384,54.311,256
	c0-39.554,11.438-77.842,33.075-110.718c4.067-6.173,8.518-12.185,13.248-17.888c2.927-3.545,6.04-7.05,9.262-10.429
	c8.687-9.132,18.273-17.487,28.49-24.834c34.41-24.742,75.08-37.82,117.614-37.82c111.213,0,201.689,90.478,201.689,201.689
	c0,56.806-24.152,111.282-66.266,149.461c-8.351,7.577-17.393,14.493-26.882,20.558C332.162,446.739,294.628,457.69,256,457.69
	c-18.027,0-35.499-2.393-52.132-6.861c-5.313-1.427-7.825-7.517-5.121-12.308l0,0c3.33-5.898-1.287-13.122-8.039-12.575
	l-38.323,3.101c-5.961,0.483-9.548,6.836-6.881,12.19l17.146,34.414c3.021,6.063,11.59,6.284,14.92,0.386l0.48-0.851
	c1.967-3.485,6.102-5.093,9.918-3.889c21.723,6.852,44.599,10.426,68.033,10.426c43.228,0,85.24-12.262,121.49-35.458
	c10.615-6.787,20.736-14.526,30.078-23.001c47.126-42.723,74.154-103.688,74.154-167.263
	C481.722,195.707,458.243,139.024,415.609,96.391z"/>
<g>
	<path style="fill:#FF525D;" d="M134.656,218.311H56.059v-6.792c0-29.403,89.621-49.183,89.621-110.258
		c0-26.666-16.854-45.39-38.975-53.248c-7.649-2.717-15.924-4.138-24.357-4.138c-31.368,0-60.771,19.79-60.771,52.015
		c0,15.276,7.074,19.79,16.677,19.79c1.306,0,2.55-0.073,3.741-0.23c9.853-1.223,15.485-7.283,15.485-13.333
		c0-3.511,0.46-6.625,1.306-9.341c2.006-6.562,6.269-10.877,11.766-13.249c3.594-1.567,7.711-2.299,12.089-2.299
		c18.651,0,26.29,13.573,26.29,25.161c0,39.873-91.032,63.896-91.032,109.129v27.429c0,7.064,9.613,11.588,16.112,11.588h100.645
		c6.228,0,11.598-7.92,11.598-16.405C146.254,225.656,140.884,218.311,134.656,218.311z"/>
	<path style="fill:#FF525D;" d="M291.359,171.384h-13.291v-29.696c0-8.202-9.049-11.588-18.38-11.588
		c-9.038,0-18.38,3.385-18.38,11.588v29.696h-33.071L262.51,62.819c0.857-1.703,1.421-3.396,1.421-4.807
		c0-8.485-11.87-14.137-18.369-14.137c-5.945,0-12.163,2.55-15.548,9.613l-67.009,131.741c-1.411,2.539-1.985,5.089-1.985,7.356
		c0,8.192,5.381,12.999,12.445,12.999h67.845v33.364c0,7.628,9.341,11.588,18.38,11.588c9.331,0,18.38-3.96,18.38-11.588v-33.364
		h13.291c5.935,0,11.588-8.474,11.588-16.959C302.947,179.848,298.987,171.384,291.359,171.384z"/>
</g>
<path style="fill:#5C5E70;" d="M375.975,146.787c-4.242,0-8.202,1.975-10.188,5.935L264.296,358.818
	c-0.836,1.411-1.4,3.103-1.4,4.807c0,5.945,5.36,12.445,13.563,12.445c4.524,0,9.049-2.267,11.024-6.228l101.491-205.239
	c0.846-1.703,1.139-3.396,1.139-5.089C390.113,151.876,382.757,146.787,375.975,146.787z"/>
<path style="fill:#F4A14E;" d="M478.229,266.324H377.877c-8.202,0-16.112,5.935-16.112,11.588v43.541
	c0,6.781,8.192,11.87,18.098,11.87c9.613,0,18.651-5.089,18.651-11.87v-22.904h59.079v18.662l-73.78,132.305
	c-1.411,2.267-1.693,4.242-1.693,6.499c0,6.855,4.974,12.612,11.661,15.778c12.11-7.743,23.521-16.478,34.116-26.091l59.382-114.072
	c3.396-6.792,7.074-15.548,7.074-21.483v-32.235C494.352,272.259,485.303,266.324,478.229,266.324z"/>
<g>
</g>
<g>
</g>
<g>
</g>
<g>
</g>
<g>
</g>
<g>
</g>
<g>
</g>
<g>
</g>
<g>
</g>
<g>
</g>
<g>
</g>
<g>
</g>
<g>
</g>
<g>
</g>
<g>
</g>
</svg>
