<?xml version="1.0" encoding="iso-8859-1"?>
<!-- Generator: Adobe Illustrator 19.0.0, SVG Export Plug-In . SVG Version: 6.00 Build 0)  -->
<svg version="1.1" id="Capa_1" xmlns="http://www.w3.org/2000/svg" xmlns:xlink="http://www.w3.org/1999/xlink" x="0px" y="0px"
	 viewBox="0 0 512 512" style="enable-background:new 0 0 512 512;" xml:space="preserve">
<path style="fill:#374266;" d="M512,256c0,15.517-1.379,30.72-4.023,45.474c-0.522,2.884-1.087,5.768-1.703,8.62
	c-2.173,10.104-4.942,19.978-8.276,29.602c-1.223,3.532-2.518,7.032-3.897,10.491c-3.03,7.701-6.437,15.214-10.188,22.518
	c-2.194,4.274-4.504,8.485-6.938,12.622c-26.739,45.599-67.187,82.181-115.691,104.093C329.174,503.923,293.533,512,256,512
	c-44.972,0-87.228-11.598-123.956-31.963c-16.833-9.331-32.496-20.501-46.728-33.249c-9.582-8.568-18.505-17.857-26.697-27.763
	C21.995,374.753,0,317.942,0,256C0,114.615,114.615,0,256,0S512,114.615,512,256z"/>
<path style="fill:#495B94;" d="M433.853,177.853c0,10.78-0.958,21.342-2.795,31.592c-1.633,9.11-3.963,17.982-6.933,26.555
	c-2.729,7.913-6.01,15.571-9.785,22.932c-18.344,35.76-48.441,64.485-85.196,81.087c-22.308,10.076-47.07,15.687-73.145,15.687
	c-31.245,0-60.601-8.058-86.117-22.206c-11.695-6.483-22.576-14.243-32.464-23.1c-6.657-5.953-12.856-12.406-18.547-19.288
	c-25.444-30.758-40.725-70.227-40.725-113.26C78.147,79.627,157.774,0,256,0S433.853,79.627,433.853,177.853z"/>
<path style="fill:#ED8C40;" d="M361.409,455.053v31.389c0,1.003-0.042,1.996-0.125,2.978C329.174,503.923,293.533,512,256,512
	c-79.444,0-150.434-36.185-197.381-92.975c0.376-0.01,0.763-0.021,1.149-0.021H325.36
	C345.266,419.004,361.409,435.148,361.409,455.053z"/>
<path style="fill:#B55D14;" d="M299.928,407.949v36.049c0,19.905-16.144,36.039-36.049,36.039H132.044
	c-16.833-9.331-32.496-20.501-46.728-33.249c-0.073-0.92-0.104-1.849-0.104-2.79v-36.049L299.928,407.949L299.928,407.949z"/>
<path style="fill:#ED8C40;" d="M263.875,443.993H121.254c-19.908,0-36.047-16.138-36.047-36.047l0,0
	c0-19.908,16.138-36.047,36.047-36.047h142.621c19.908,0,36.047,16.138,36.047,36.047l0,0
	C299.922,427.854,283.784,443.993,263.875,443.993z"/>
<g>
	<path style="fill:#FFE261;" d="M121.254,424.14c-8.93,0-16.195-7.265-16.195-16.194c0-8.93,7.265-16.195,16.195-16.195h142.621
		c8.93,0,16.194,7.265,16.194,16.195c0,8.929-7.264,16.194-16.194,16.194H121.254z"/>
	<path style="fill:#FFE261;" d="M109.714,319.498c-1.738,0-3.476-0.664-4.803-1.989l-55.38-55.38c-2.652-2.653-2.652-6.953,0-9.605
		c2.653-2.652,6.953-2.652,9.606,0l55.38,55.38c2.652,2.653,2.652,6.953,0,9.605C113.191,318.835,111.452,319.498,109.714,319.498z"
		/>
	<path style="fill:#FFE261;" d="M101.583,353.829c-0.681,0-1.375-0.103-2.059-0.321l-74.639-23.725
		c-3.576-1.136-5.552-4.955-4.416-8.531c1.137-3.576,4.964-5.547,8.53-4.416l74.639,23.725c3.576,1.137,5.552,4.956,4.416,8.531
		C107.134,351.983,104.462,353.829,101.583,353.829z"/>
	<path style="fill:#FFE261;" d="M143.407,313.322c-2.852,0-5.507-1.81-6.449-4.665l-24.547-74.373
		c-1.176-3.562,0.76-7.402,4.322-8.578c3.562-1.174,7.403,0.76,8.579,4.321l24.547,74.373c1.176,3.562-0.76,7.402-4.322,8.578
		C144.83,313.211,144.112,313.322,143.407,313.322z"/>
</g>
<path style="fill:#B55D14;" d="M388.47,105.185c38.484,38.484,38.484,100.887,0,139.372s-100.887,38.484-139.372,0
	c-5.548-5.548-10.296-11.585-14.234-17.996c-23.45-37.979-18.702-88.44,14.234-121.375s83.396-37.682,121.375-14.234
	C376.885,94.889,382.922,99.636,388.47,105.185z"/>
<path style="fill:#ED8C40;" d="M370.474,90.952c23.45,37.979,18.702,88.44-14.234,121.375s-83.396,37.682-121.375,14.234
	c-23.45-37.979-18.702-88.44,14.234-121.375S332.495,67.502,370.474,90.952z"/>
<g>
	<path style="fill:#B55D14;" d="M209.317,184.74l99.598,99.598c8.58,8.58,8.58,22.482,0,31.063l-25.557,25.557
		c-8.58,8.58-22.482,8.58-31.063,0l-99.598-99.598c-8.58-8.58-8.58-22.482,0-31.063l25.557-25.557
		C186.835,176.16,200.737,176.16,209.317,184.74z"/>
	<path style="fill:#B55D14;" d="M385.274,8.783l99.598,99.598c8.58,8.58,8.58,22.482,0,31.063l-25.557,25.557
		c-8.58,8.58-22.482,8.58-31.063,0l-99.598-99.598c-8.58-8.58-8.58-22.482,0-31.063l25.557-25.557
		C362.791,0.204,376.693,0.204,385.274,8.783z"/>
</g>
<g>
	<path style="fill:#ED8C40;" d="M209.317,184.74l69.982,69.982c8.58,8.58,8.58,22.482,0,31.063l-25.557,25.557
		c-8.58,8.58-22.482,8.58-31.063,0l-69.982-69.982c-8.58-8.58-8.58-22.482,0-31.063l25.557-25.557
		C186.835,176.16,200.737,176.16,209.317,184.74z"/>
	<path style="fill:#ED8C40;" d="M385.274,8.783l69.982,69.982c8.58,8.58,8.58,22.482,0,31.063l-25.557,25.557
		c-8.58,8.58-22.482,8.58-31.063,0l-69.982-69.982c-8.58-8.58-8.58-22.482,0-31.063l25.557-25.557
		C362.791,0.204,376.693,0.204,385.274,8.783z"/>
</g>
<path style="fill:#B55D14;" d="M506.274,310.094c-2.173,10.104-4.942,19.978-8.276,29.602c-1.223,3.532-2.518,7.032-3.897,10.491
	c-3.03,7.701-6.437,15.214-10.188,22.518c-2.194,4.274-4.504,8.485-6.938,12.622L343.176,251.528l52.266-52.266l47.031,47.041
	L506.274,310.094z"/>
<path style="fill:#ED8C40;" d="M506.274,310.094c-2.173,10.104-4.942,19.978-8.276,29.602c-1.223,3.532-2.518,7.032-3.897,10.491
	l-59.58-59.58c-10.041-10.041-10.041-26.311,0-36.352l7.952-7.952L506.274,310.094z"/>
<g>
</g>
<g>
</g>
<g>
</g>
<g>
</g>
<g>
</g>
<g>
</g>
<g>
</g>
<g>
</g>
<g>
</g>
<g>
</g>
<g>
</g>
<g>
</g>
<g>
</g>
<g>
</g>
<g>
</g>
</svg>
