<?xml version="1.0" encoding="iso-8859-1"?>
<!-- Generator: Adobe Illustrator 19.0.0, SVG Export Plug-In . SVG Version: 6.00 Build 0)  -->
<svg version="1.1" id="Capa_1" xmlns="http://www.w3.org/2000/svg" xmlns:xlink="http://www.w3.org/1999/xlink" x="0px" y="0px"
	 viewBox="0 0 512 512" style="enable-background:new 0 0 512 512;" xml:space="preserve">
<path style="fill:#C8FFFA;" d="M512,256c0,141.385-114.615,256-256,256S0,397.385,0,256S114.615,0,256,0S512,114.615,512,256z"/>
<path style="fill:#9BF5F0;" d="M512,256c0,141.385-114.615,256-256,256S0,397.385,0,256c0-43.165,10.699-83.825,29.566-119.5h14.497
	c5.213,0,10.145,2.273,13.53,6.237l26.064,30.515c7.19,8.419,17.665,13.248,28.738,13.248c11.072,0,21.547-4.828,28.738-13.247
	l98.67-115.517c3.385-3.963,8.316-6.236,13.529-6.236h156.673C471.951,98.224,512,172.432,512,256z"/>
<path style="fill:#50C8C8;" d="M452.561,420c-46.96,56.223-117.578,92-196.561,92s-149.601-35.777-196.561-92H452.561z"/>
<path style="fill:#AF32C3;" d="M512,250c0,0.348-0.018,0.691-0.053,1.03c0.031,1.653,0.053,3.309,0.053,4.97
	c0,87.114-43.523,164.051-110,210.291V250V45.709V30c0-5.523,4.477-10,10-10h90c5.523,0,10,4.477,10,10V250z"/>
<path style="fill:#782891;" d="M402,45.709c16.111,11.207,30.879,24.208,44,38.73V427.56c-13.121,14.522-27.889,27.523-44,38.73
	V45.709z"/>
<path style="fill:#82E1E1;" d="M400,55c0,5.522-4.478,10-10,10H253.333c-5.213,0-10.145,2.273-13.529,6.236l-98.67,115.517
	C133.942,195.172,123.468,200,112.396,200c-11.073,0-21.548-4.829-28.738-13.248l-26.064-30.515
	c-3.386-3.964-8.317-6.237-13.53-6.237H22.916c3.113-6.834,6.523-13.503,10.204-20h10.942c11.073,0,21.548,4.829,28.738,13.248
	l26.064,30.515c3.386,3.964,8.317,6.237,13.53,6.237s10.146-2.273,13.531-6.237l98.669-115.516C231.785,49.829,242.26,45,253.333,45
	H390C395.522,45,400,49.478,400,55z"/>
<path style="fill:#FFEB50;" d="M426,190v257.385c-30.893,27.461-68.474,47.552-110,57.526V190c0-5.523,4.477-10,10-10h90
	C421.523,180,426,184.477,426,190z"/>
<path style="fill:#F7D139;" d="M326,180h44c-5.523,0-10,4.477-10,10v299.978c-14.045,6.252-28.757,11.272-44,14.934V190
	c0-1.381,0.28-2.696,0.786-3.893c0.253-0.598,0.563-1.167,0.922-1.699c0.18-0.266,0.372-0.523,0.576-0.77
	c1.63-1.976,4.005-3.314,6.694-3.587C325.314,180.018,325.655,180,326,180z"/>
<path style="fill:#50C8C8;" d="M90,160.998c0,8.284-6.716,15-15,15s-15-6.716-15-15s6.716-15,15-15S90,152.713,90,160.998z
	 M295,40.831c-8.284,0-15,6.716-15,15s6.716,15,15,15s15-6.716,15-15C310,47.546,303.284,40.831,295,40.831z M196.5,89.498
	c-8.284,0-15,6.716-15,15s6.716,15,15,15s15-6.716,15-15C211.5,96.213,204.784,89.498,196.5,89.498z"/>
<path style="fill:#EBF582;" d="M436.065,122.303l-56.32,49.206c-0.977,0.853-2.433,0.853-3.41,0l-56.32-49.206
	c-31.914-27.883-31.914-73.509,0-101.391l0,0c31.914-27.883,84.137-27.883,116.051,0l0,0
	C467.978,48.795,467.978,94.421,436.065,122.303z"/>
<path style="fill:#C3C837;" d="M415.534,51.779l-37.53,37.53l-23.186,23.186c-2.812,2.812-7.386,2.812-10.197,0l-4.077-4.077
	c-2.812-2.812-2.812-7.386,0-10.197l23.186-23.186l37.53-37.531c2.812-2.812,7.386-2.812,10.198,0l4.077,4.077
	C418.346,44.394,418.346,48.968,415.534,51.779z M350.289,59.5c6.765,0,12.25-5.484,12.25-12.25S357.054,35,350.289,35
	c-6.766,0-12.25,5.484-12.25,12.25S343.523,59.5,350.289,59.5z M405.789,90.5c-6.766,0-12.25,5.484-12.25,12.25
	s5.484,12.25,12.25,12.25c6.765,0,12.25-5.484,12.25-12.25S412.554,90.5,405.789,90.5z"/>
<path style="fill:#FF4B6E;" d="M330,260v241.123C306.571,508.187,281.732,512,256,512c-12.221,0-24.236-0.876-36-2.532V260
	c0-5.523,4.477-10,10-10h90C325.523,250,330,254.477,330,260z"/>
<path style="fill:#DC325F;" d="M230,250h40c-5.523,0-10,4.477-10,10v251.949c-1.333,0.021-2.663,0.051-4,0.051
	c-12.221,0-24.236-0.876-36-2.532V260C220,254.477,224.477,250,230,250z"/>
<path style="fill:#FFE1C3;" d="M299.986,222.303l-56.32,49.206c-0.977,0.853-2.433,0.853-3.41,0l-56.32-49.206
	c-31.914-27.883-31.914-73.509,0-101.391l0,0c31.914-27.883,84.137-27.883,116.051,0l0,0
	C331.9,148.795,331.9,194.421,299.986,222.303z"/>
<path style="fill:#FF4B6E;" d="M289.313,182.89L289.313,182.89c-8.749,11.706-19.103,22.096-30.74,30.872
	c-5.156,3.888-10.74,7.172-16.611,9.86l0,0l0,0c-5.871-2.688-11.457-5.972-16.612-9.86c-11.637-8.776-21.991-19.166-30.74-30.871
	l0,0c-8.48-11.346-7.341-27.198,2.676-37.214l0,0c11.13-11.13,29.175-11.13,40.304,0l4.372,4.372l4.372-4.372
	c11.13-11.13,29.174-11.13,40.304,0l0,0C296.654,155.692,297.794,171.544,289.313,182.89z"/>
<path style="fill:#FFAF82;" d="M281.25,344.268c10.355,0,18.75,8.395,18.75,18.75s-8.395,18.75-18.75,18.75
	c10.355,0,18.75,8.395,18.75,18.75s-8.395,18.75-18.75,18.75c10.582,0,19.117,8.766,18.738,19.433
	c-0.361,10.161-9.02,18.067-19.187,18.067H150c-10.355,0-18.75-8.395-18.75-18.75H76.003C56.8,419.026,40.58,397.025,28.125,372.77
	v-27.252c0-11.046,8.954-20,20-20h72.62c6.878,0,13.273-3.534,16.933-9.357l57.684-91.773c2.755-4.384,8.543-5.704,12.926-2.948l0,0
	c13.151,8.266,17.111,25.628,8.845,38.779l-29.259,46.55H280.8c10.167,0,18.826,7.906,19.187,18.067
	C300.367,335.501,291.832,344.268,281.25,344.268z"/>
<path style="fill:#FF9B69;" d="M136.828,325.518h-16.083c6.878,0,13.273-3.534,16.933-9.357l57.684-91.773
	c2.755-4.384,8.543-5.704,12.926-2.948l0,0c1.229,0.772,2.367,1.633,3.433,2.554c-0.092,0.131-0.19,0.257-0.276,0.394
	l-57.684,91.773C150.101,321.984,143.706,325.518,136.828,325.518z M299.951,436.818c-3.412,2.924-7.858,4.698-12.653,4.698H163.502
	c-6.79,0-12.737-3.609-16.027-9.013c-3.658-6.009-10.123-9.737-17.158-9.737H89.505c-19.203-18.992-35.423-40.992-47.878-65.248
	v-27.252c0-1.29,0.132-2.548,0.365-3.77c-8.042,2.59-13.867,10.118-13.867,19.022v27.252c12.455,24.256,28.675,46.256,47.878,65.248
	h55.247c0,10.355,8.395,18.75,18.75,18.75h130.801c10.167,0,18.826-7.906,19.187-18.067
	C300.01,438.065,299.993,437.438,299.951,436.818z M228.608,419.497h52.193c10.167,0,18.826-7.906,19.187-18.066
	c0.025-0.702,0.007-1.393-0.047-2.075c-3.186,1.85-6.876,2.926-10.781,2.926h-60.552c-4.754,0-8.608,3.854-8.608,8.608
	S223.854,419.497,228.608,419.497z M228.608,382.143h52.193c10.167,0,18.826-7.906,19.187-18.066
	c0.025-0.702,0.007-1.393-0.047-2.075c-3.186,1.85-6.876,2.926-10.781,2.926h-60.552c-4.754,0-8.608,3.854-8.608,8.608l0,0
	C220,378.289,223.854,382.143,228.608,382.143z M228.608,344.893h52.193c10.167,0,18.826-7.906,19.187-18.066
	c0.025-0.702,0.007-1.393-0.047-2.075c-3.186,1.85-6.876,2.926-10.781,2.926h-60.552c-4.754,0-8.608,3.854-8.608,8.608l0,0
	C220,341.039,223.854,344.893,228.608,344.893z"/>
<path style="fill:#FFD7AA;" d="M203.418,242.472l-3.662,5.966c-1.445,2.354-4.524,3.09-6.877,1.646l-9.864-6.054l12.329-19.615
	c1.42,0.256,2.819,0.753,4.124,1.554l0,0C205.117,229.434,206.885,236.823,203.418,242.472z"/>
<path style="fill:#5F82C3;" d="M112.5,321.455V442.08c0,5.523-4.477,10-10,10H91.431c-42.181-35.44-72.76-84.231-85.226-139.875
	c1.171-0.481,2.451-0.75,3.795-0.75h92.5C108.023,311.455,112.5,315.932,112.5,321.455z"/>
<path style="fill:#506EA0;" d="M112.5,400.625v41.455c0,5.523-4.477,10-10,10H91.431c-14.639-12.3-27.877-26.211-39.449-41.455
	H102.5C108.023,410.625,112.5,406.148,112.5,400.625z"/>
<path style="fill:#91B9FF;" d="M90,345c0,8.284-6.716,15-15,15s-15-6.716-15-15s6.716-15,15-15S90,336.716,90,345z"/>
<g>
</g>
<g>
</g>
<g>
</g>
<g>
</g>
<g>
</g>
<g>
</g>
<g>
</g>
<g>
</g>
<g>
</g>
<g>
</g>
<g>
</g>
<g>
</g>
<g>
</g>
<g>
</g>
<g>
</g>
</svg>
