<svg viewBox="1 1 511.99998 511.99998" xmlns="http://www.w3.org/2000/svg"><path d="m512 256c0 34.492188-6.824219 67.394531-19.195312 97.425781-12.589844 30.585938-30.9375 58.203125-53.695313 81.480469-46.488281 47.566406-111.347656 77.09375-183.109375 77.09375-141.386719 0-256-114.613281-256-256s114.613281-256 256-256 256 114.613281 256 256zm0 0" fill="#583377"/><path d="m58.253906 53.707031c-19.097656 0-34.582031 15.480469-34.582031 34.582031v230.957032l84.117187-65.972656h196.324219c19.097657 0 34.578125-15.480469 34.578125-34.578126v-130.40625c0-19.101562-15.480468-34.582031-34.578125-34.582031zm0 0" fill="#ededed"/><path d="m492.804688 246.0625v107.363281c-12.589844 30.585938-30.9375 58.203125-53.695313 81.480469l-30.417969-23.855469h-196.328125c-19.089843 0-34.574219-15.484375-34.574219-34.585937v-130.402344c0-19.101562 15.484376-34.585938 34.574219-34.585938h245.867188c19.101562 0 34.574219 15.484376 34.574219 34.585938zm0 0" fill="#ff4f9b"/><g fill="#475866"><path d="m290.238281 319.246094c0 11.6875-9.472656 21.160156-21.160156 21.160156-11.683594 0-21.15625-9.472656-21.15625-21.160156 0-11.683594 9.472656-21.15625 21.15625-21.15625 11.6875 0 21.160156 9.472656 21.160156 21.15625zm0 0"/><path d="m422.671875 319.246094c0 11.6875-9.472656 21.160156-21.15625 21.160156-11.6875 0-21.160156-9.472656-21.160156-21.160156 0-11.683594 9.472656-21.15625 21.160156-21.15625 11.683594 0 21.15625 9.472656 21.15625 21.15625zm0 0"/><path d="m356.457031 319.246094c0 11.6875-9.472656 21.160156-21.160156 21.160156-11.683594 0-21.15625-9.472656-21.15625-21.160156 0-11.683594 9.472656-21.15625 21.15625-21.15625 11.6875 0 21.160156 9.472656 21.160156 21.15625zm0 0"/><path d="m136.121094 156.25c0 11.6875-9.472656 21.160156-21.15625 21.160156s-21.15625-9.472656-21.15625-21.160156c0-11.683594 9.472656-21.15625 21.15625-21.15625s21.15625 9.472656 21.15625 21.15625zm0 0"/><path d="m268.558594 156.25c0 11.6875-9.472656 21.160156-21.160156 21.160156-11.683594 0-21.15625-9.472656-21.15625-21.160156 0-11.683594 9.472656-21.15625 21.15625-21.15625 11.6875 0 21.160156 9.472656 21.160156 21.15625zm0 0"/><path d="m202.339844 156.25c0 11.6875-9.472656 21.160156-21.15625 21.160156-11.6875 0-21.160156-9.472656-21.160156-21.160156 0-11.683594 9.472656-21.15625 21.160156-21.15625 11.683594 0 21.15625 9.472656 21.15625 21.15625zm0 0"/></g></svg>