<svg height="512pt" viewBox="0 0 512 512" width="512pt" xmlns="http://www.w3.org/2000/svg"><path d="m512 256c0 141.386719-114.613281 256-256 256s-256-114.613281-256-256 114.613281-256 256-256 256 114.613281 256 256zm0 0" fill="#ffda73"/><path d="m481.980469 256c0 124.804688-101.175781 225.980469-225.980469 225.980469s-225.980469-101.175781-225.980469-225.980469 101.175781-225.980469 225.980469-225.980469 225.980469 101.175781 225.980469 225.980469zm0 0" fill="#707a89"/><path d="m348.148438 49.609375c-28.136719-12.59375-59.324219-19.589844-92.148438-19.589844-124.8125 0-225.980469 101.167969-225.980469 225.980469 0 81.0625 42.675781 152.160156 106.800781 192.035156 34.597657 21.519532 75.441407 33.945313 119.179688 33.945313 124.800781 0 225.980469-101.167969 225.980469-225.980469 0-91.988281-54.960938-171.132812-133.832031-206.390625zm0 0" fill="#52b5d8"/><path d="m445.316406 256c0 .792969 0 1.578125-.007812 2.371094-1.253906 102.042968-83.207032 184.644531-184.988282 186.910156-1.433593.042969-2.875.054688-4.316406.054688-24.023437 0-47.011718-4.472657-68.160156-12.644532-10.78125-4.167968-21.097656-9.289062-30.8125-15.265625-54.21875-33.289062-90.382812-93.121093-90.382812-161.425781 0-104.5625 84.78125-189.335938 189.355468-189.335938 25.890625 0 50.5625 5.191407 73.039063 14.617188 12.390625 5.183594 24.105469 11.640625 34.992187 19.226562 8.117188 5.640626 15.757813 11.910157 22.871094 18.734376 35.988281 34.441406 58.410156 82.984374 58.410156 136.757812zm0 0" fill="#e6e6e6"/><path d="m386.902344 119.242188c-7.113282-6.824219-14.753906-13.089844-22.867188-18.738282-10.890625-7.578125-22.601562-14.039062-34.992187-19.222656-22.472657-9.421875-47.144531-14.613281-73.042969-14.613281-12.058594 0-23.851562 1.140625-35.28125 3.296875 13.113281 2.46875 25.753906 6.285156 37.757812 11.316406 12.390626 5.183594 24.105469 11.644531 34.992188 19.222656 8.117188 5.648438 15.753906 11.914063 22.867188 18.738282 35.992187 34.441406 58.421874 82.984374 58.421874 136.757812 0 92.523438-66.359374 169.523438-154.066406 186.042969 11.441406 2.160156 23.246094 3.289062 35.308594 3.289062 1.445312 0 2.890625-.011719 4.320312-.046875 102.5625-2.292968 185-86.152344 185-189.285156 0-53.773438-22.425781-102.316406-58.417968-136.757812zm0 0" fill="#fcf8f2"/><path d="m445.316406 256c0 .792969 0 1.578125-.007812 2.371094h-189.304688v-191.707032c25.890625 0 50.5625 5.191407 73.039063 14.617188 12.390625 5.183594 24.105469 11.640625 34.992187 19.226562 8.117188 5.640626 15.757813 11.910157 22.871094 18.734376 35.988281 34.441406 58.410156 82.984374 58.410156 136.757812zm0 0" fill="#f76c59"/><path d="m445.316406 256c0 .792969 0 1.578125-.007812 2.371094h-70.5625c.007812-.785156.007812-1.578125.007812-2.371094 0-53.773438-22.421875-102.316406-58.417968-136.757812-7.117188-6.824219-14.753907-13.09375-22.863282-18.734376-10.886718-7.585937-22.601562-14.042968-34.992187-19.226562-.828125-.34375-1.652344-.6875-2.476563-1.011719v-13.605469c25.890625 0 50.5625 5.191407 73.039063 14.617188 12.390625 5.183594 24.105469 11.640625 34.992187 19.226562 8.117188 5.640626 15.757813 11.910157 22.871094 18.734376 35.988281 34.441406 58.410156 82.984374 58.410156 136.757812zm0 0" fill="#e85142"/><path d="m256 454.558594c-53.042969 0-102.90625-20.652344-140.414062-58.152344-37.507813-37.503906-58.164063-87.367188-58.164063-140.40625 0-109.484375 89.082031-198.554688 198.578125-198.554688 109.480469 0 198.546875 89.070313 198.546875 198.554688 0 53.039062-20.652344 102.902344-58.15625 140.402344-37.5 37.503906-87.359375 58.15625-140.390625 58.15625zm0-378.667969c-99.324219 0-180.132812 80.796875-180.132812 180.109375s80.808593 180.109375 180.132812 180.109375c99.308594 0 180.097656-80.796875 180.097656-180.109375s-80.789062-180.109375-180.097656-180.109375zm0 0" fill="#3da5c1"/><path d="m255.992188 138.933594c-5.09375 0-9.226563-4.132813-9.226563-9.226563v-31.347656c0-5.09375 4.132813-9.222656 9.226563-9.222656s9.222656 4.128906 9.222656 9.222656v31.347656c0 5.09375-4.128906 9.226563-9.222656 9.226563zm0 0" fill="#36435e"/><path d="m255.992188 422.871094c-5.09375 0-9.226563-4.128906-9.226563-9.222656v-31.351563c0-5.09375 4.132813-9.222656 9.226563-9.222656s9.222656 4.128906 9.222656 9.222656v31.351563c0 5.09375-4.128906 9.222656-9.222656 9.222656zm0 0" fill="#36435e"/><path d="m413.632812 265.226562h-31.347656c-5.09375 0-9.222656-4.128906-9.222656-9.222656s4.128906-9.222656 9.222656-9.222656h31.347656c5.09375 0 9.226563 4.128906 9.226563 9.222656s-4.132813 9.222656-9.226563 9.222656zm0 0" fill="#36435e"/><path d="m129.695312 265.226562h-31.347656c-5.097656 0-9.226562-4.128906-9.226562-9.222656s4.128906-9.222656 9.226562-9.222656h31.347656c5.09375 0 9.222657 4.128906 9.222657 9.222656s-4.128907 9.222656-9.222657 9.222656zm0 0" fill="#36435e"/><g fill="#55627a"><path d="m376.730469 196.472656c-4.246094 0-8.164063-2.75-9.585938-6.75-1.425781-4.003906-.171875-8.601562 3.125-11.296875 3.347657-2.738281 8.15625-3.035156 11.832031-.773437 3.632813 2.234375 5.5 6.707031 4.5625 10.863281-1.042968 4.585937-5.21875 7.957031-9.933593 7.957031zm0 0"/><path d="m135.257812 335.894531c-4.082031 0-7.847656-2.527343-9.410156-6.292969-1.648437-3.972656-.554687-8.710937 2.691406-11.542968 3.214844-2.804688 7.914063-3.308594 11.652344-1.246094 3.6875 2.035156 5.789063 6.324219 5.113282 10.488281-.789063 4.875-5.089844 8.59375-10.046876 8.59375zm0 0"/><path d="m325.699219 145.445312c-4.269531 0-8.132813-2.746093-9.578125-6.75-1.421875-3.9375-.203125-8.492187 2.992187-11.195312 3.339844-2.828125 8.238281-3.175781 11.957031-.878906 3.5625 2.203125 5.429688 6.535156 4.605469 10.636718-.945312 4.703126-5.179687 8.1875-9.976562 8.1875zm0 0"/><path d="m186.277344 386.917969c-4.199219 0-8.035156-2.667969-9.519532-6.59375-1.554687-4.117188-.207031-8.941407 3.285157-11.632813 3.230469-2.496094 7.730469-2.8125 11.277343-.796875 3.761719 2.140625 5.796876 6.585938 4.945313 10.835938-.941406 4.703125-5.191406 8.1875-9.988281 8.1875zm0 0"/><path d="m186.277344 145.445312c-4.195313 0-8.042969-2.671874-9.519532-6.59375-1.503906-4-.292968-8.691406 3.015626-11.417968 3.152343-2.601563 7.699218-3.070313 11.304687-1.144532 3.804687 2.035157 5.949219 6.375 5.25 10.636719-.800781 4.855469-5.136719 8.519531-10.050781 8.519531zm0 0"/><path d="m325.699219 386.917969c-4.140625 0-7.9375-2.589844-9.460938-6.433594-1.601562-4.03125-.398437-8.8125 2.953125-11.578125 3.15625-2.605469 7.695313-3.066406 11.300782-1.144531 3.875 2.0625 6.035156 6.570312 5.203124 10.886719-.917968 4.742187-5.160156 8.269531-9.996093 8.269531zm0 0"/><path d="m135.257812 196.472656c-4.25 0-8.144531-2.734375-9.578124-6.734375-1.441407-4.003906-.179688-8.613281 3.117187-11.3125 3.210937-2.632812 7.792969-3.015625 11.414063-1.011719 3.707031 2.050782 5.789062 6.367188 5.085937 10.542969-.816406 4.847657-5.113281 8.515625-10.039063 8.515625zm0 0"/><path d="m376.730469 335.894531c-4.136719 0-7.949219-2.605469-9.46875-6.445312-1.59375-4.015625-.402344-8.703125 2.882812-11.496094 3.332031-2.832031 8.242188-3.199219 11.957031-.890625 3.664063 2.277344 5.515626 6.765625 4.535157 10.960938-1.0625 4.550781-5.230469 7.871093-9.90625 7.871093zm0 0"/><path d="m297.070312 265.226562h-41.078124c-5.09375 0-9.226563-4.128906-9.226563-9.222656v-65.855468c0-5.09375 4.132813-9.222657 9.226563-9.222657s9.222656 4.128907 9.222656 9.222657v56.632812h31.855468c5.09375 0 9.226563 4.128906 9.226563 9.222656s-4.132813 9.222656-9.226563 9.222656zm0 0"/></g><path d="m276.523438 256c0 11.1875-8.941407 20.285156-20.070313 20.535156-.15625.003906-.3125.003906-.46875.003906-2.605469 0-5.101563-.484374-7.394531-1.371093-1.167969-.453125-2.289063-1.007813-3.34375-1.65625-5.882813-3.609375-9.804688-10.101563-9.804688-17.511719 0-11.34375 9.199219-20.539062 20.542969-20.539062 2.808594 0 5.484375.5625 7.925781 1.585937 1.34375.5625 2.613282 1.261719 3.792969 2.085937.882813.609376 1.710937 1.289063 2.480469 2.03125 3.90625 3.734376 6.339844 9.003907 6.339844 14.835938zm0 0" fill="#36435e"/></svg>